<svg width="17" height="17" viewBox="0 0 17 17" fill="none" xmlns="http://www.w3.org/2000/svg">
<g clip-path="url(#clip0_584_257)">
<path opacity="0.4" d="M3.95364 5.85194L12.8425 5.83092L12.8551 11.1642L3.96625 11.1853L3.95364 5.85194ZM15.071 8.49232C15.0728 9.22871 15.6711 9.82424 16.4075 9.8225L16.4138 12.4892C16.4156 13.2255 15.82 13.8239 15.0836 13.8256L1.75035 13.8572C1.01396 13.8589 0.415604 13.2634 0.413862 12.527L0.407554 9.86034C1.14394 9.8586 1.73947 9.26025 1.73773 8.52386C1.73599 7.78747 1.13763 7.19194 0.401246 7.19368L0.394939 4.52702C0.393197 3.79064 0.988727 3.19228 1.72511 3.19054L15.0584 3.159C15.7948 3.15726 16.3932 3.75279 16.3949 4.48918L16.4012 7.15584C15.6648 7.15758 15.0693 7.75593 15.071 8.49232ZM13.7309 5.60659C13.73 5.2384 13.4308 4.94063 13.0626 4.94151L3.72931 4.96358C3.36112 4.96445 3.06336 5.26363 3.06423 5.63182L3.07789 11.4096C3.07876 11.7778 3.37794 12.0755 3.74613 12.0747L13.0794 12.0526C13.4476 12.0517 13.7454 11.7525 13.7445 11.3844L13.7309 5.60659Z" fill="#9FA2B4"/>
</g>
<defs>
<clipPath id="clip0_584_257">
<rect width="16" height="16" fill="white" transform="translate(0.385498 0.527039) rotate(-0.135531)"/>
</clipPath>
</defs>
</svg>
